<svg width="32" height="32" viewBox="0 0 32 32" fill="none" xmlns="http://www.w3.org/2000/svg">
<path d="M24 12H8V14H23H24V12ZM28 15.518V4H4V28H15.518C17.132 30.411 19.879 31.999 23 32C27.971 31.998 31.998 27.971 32 23C31.999 19.879 30.411 17.132 28 15.518ZM15.517 18C15.105 18.616 14.774 19.289 14.523 20H8V22H14.058C14.022 22.329 14 22.661 14 23C14 24.054 14.19 25.061 14.523 26H6V6H26V14.523C25.061 14.19 24.054 14 23 14C20.857 14 18.893 14.751 17.348 16H8V18H15.517ZM23 29.883C19.199 29.874 16.124 26.799 16.115 23C16.124 19.199 19.199 16.124 23 16.116C26.799 16.124 29.874 19.199 29.883 23C29.874 26.799 26.799 29.874 23 29.883Z" fill="#017279"/>
<path d="M24.9532 21.4826C24.9545 20.6968 24.6896 19.9338 24.2017 19.3178C23.7138 18.7019 23.0316 18.2694 22.2664 18.0909C21.5012 17.9124 20.6981 17.9984 19.988 18.3348C19.2779 18.6713 18.7027 19.2384 18.3562 19.9436C18.0098 20.6489 17.9124 21.4507 18.0801 22.2184C18.2477 22.986 18.6705 23.6743 19.2794 24.1709C19.8884 24.6675 20.6476 24.9431 21.4333 24.9529C22.219 24.9627 22.9849 24.706 23.606 24.2247L26.3873 27.006L27 26.3932L24.2187 23.612C24.6931 23.0033 24.9515 22.2542 24.9532 21.4826V21.4826ZM21.4766 24.09C20.9609 24.09 20.4568 23.9371 20.028 23.6506C19.5992 23.3641 19.265 22.9568 19.0676 22.4804C18.8703 22.0039 18.8186 21.4797 18.9192 20.9739C19.0199 20.4681 19.2682 20.0035 19.6328 19.6388C19.9975 19.2742 20.4621 19.0258 20.9679 18.9252C21.4737 18.8246 21.998 18.8763 22.4744 19.0736C22.9509 19.271 23.3581 19.6052 23.6446 20.034C23.9311 20.4627 24.084 20.9669 24.084 21.4826C24.084 22.1741 23.8093 22.8373 23.3203 23.3263C22.8313 23.8153 22.1681 24.09 21.4766 24.09Z" fill="#017279"/>
</svg>
