<svg width="25" height="25" viewBox="0 0 25 25" fill="none" xmlns="http://www.w3.org/2000/svg">
<path d="M21.875 0H3.125C1.39911 0 0 1.39911 0 3.125V21.875C0 23.6009 1.39911 25 3.125 25H21.875C23.6009 25 25 23.6009 25 21.875V3.125C25 1.39911 23.6009 0 21.875 0Z" fill="#646464"/>
<rect x="3.5" y="5.5" width="18" height="14" rx="1.5" stroke="white"/>
<path d="M4 6.5L10.9362 12.5114C11.2998 12.8265 11.7649 13 12.2461 13H13.1716C13.702 13 14.2107 12.7893 14.5858 12.4142L20 7L20.5 6.5L21 6M4 19L11 12.5M21 19L14 12.5" stroke="white"/>
</svg>
